<svg xmlns="http://www.w3.org/2000/svg" version="1.1" width="48" height="48" viewBox="0 0 48 48"><path fill="#267df4" d="m36.2 2c-1.2 0.1-2.3 0.6-3.1 1.6l-1.3 1.7 2 0.9 1-1.3c0.7-0.9 2-1.1 3-0.4l3.3 2.6c0.9 0.7 1.1 2.1 0.4 3l-1 1.3 1.3 1.7 0.7-0.8 0.6-0.8C44.5 9.6 44.2 7 42.4 5.5L39.1 2.9c-0.7-0.5-1.5-0.8-2.3-0.9-0.2 0-0.3 0-0.5 0zm-24.5 0c-0.2 0-0.3 0-0.5 0C10.4 2.1 9.6 2.4 8.9 2.9L5.6 5.5c-1.8 1.4-2.2 4.1-0.7 6l1.3 1.7 1.3-1.7-1-1.3C5.8 9.2 6 7.9 6.9 7.2L10.2 4.6c0.9-0.7 2.2-0.6 3 0.4L14.2 6.2 16.2 5.3 15.5 4.5 14.9 3.6C14.1 2.6 12.9 2.1 11.8 2Zm12.2 3.6c-10.5 0-19 8.6-19 19.1 0 6.4 3.1 12.1 8 15.6l-4.2 4.2 1.5 1.5 4.5-4.5c2.7 1.5 5.9 2.4 9.2 2.4 3.3 0 6.4-0.8 9.1-2.3l4.4 4.4 1.5-1.5-4.1-4.1c4.9-3.5 8.1-9.2 8.1-15.7 0-10.6-8.5-19.1-19-19.1zm0 2.1c9.3 0 16.9 7.6 16.9 17 0 9.4-7.6 17-16.9 17-9.3 0-16.9-7.6-16.9-17 0-9.4 7.6-17 16.9-17zm0 4.2v12.7h-8.4v2.1h8.4v0h2.1v0h0v-2.1h0v-12.7z"/></svg>