<svg xmlns="http://www.w3.org/2000/svg" version="1.1" width="24" height="24" viewBox="0 0 24 24"><path fill="#fff" d="m18.7 18.5c-0.8 1.2-1.7 2.5-3 2.5-1.3 0-1.8-0.8-3.3-0.8-1.5 0-2 0.8-3.3 0.8-1.3 0.1-2.3-1.3-3.1-2.5-1.7-2.5-3-7-1.3-10.1 0.9-1.5 2.4-2.5 4.1-2.5 1.3 0 2.5 0.9 3.3 0.9 0.8 0 2.3-1.1 3.8-0.9 0.7 0 2.5 0.3 3.6 2-0.1 0.1-2.2 1.3-2.1 3.8 0 3 2.7 4 2.7 4 0 0.1-0.4 1.4-1.4 2.8M13 2.5C13.7 1.7 14.9 1 15.9 1 16.1 2.2 15.6 3.3 14.9 4.2c-0.7 0.9-1.8 1.5-2.9 1.4-0.1-1.1 0.4-2.3 1.1-3.1z"/></svg>