<svg xmlns="http://www.w3.org/2000/svg" version="1.1" width="48" height="48" viewBox="0 0 48 48"><path fill="#267df4" d="M24 0A13 13 0 0 0 11 13L11 20 9 20C6.8 20 5 21.8 5 24L5 44C5 46.2 6.8 48 9 48L39 48C41.2 48 43 46.2 43 44L43 24C43 21.8 41.2 20 39 20L37 20 37 13A13 13 0 0 0 24 0zM24 2A11 11 0 0 1 35 13L35 20 33 20 33 13A9 9 0 0 0 24 4 9 9 0 0 0 15 13L15 20 13 20 13 13A11 11 0 0 1 24 2zM24 6A7 7 0 0 1 31 13L31 20 17 20 17 13A7 7 0 0 1 24 6zM9 22L15 22 17 22 31 22 33 22 39 22C40.1 22 41 22.9 41 24L41 44C41 45.1 40.1 46 39 46L9 46C7.9 46 7 45.1 7 44L7 24C7 22.9 7.9 22 9 22zM24 27A4 4 0 0 0 20 31 4 4 0 0 0 21 33.6L21 38A3 3 0 0 0 24 41 3 3 0 0 0 27 38L27 33.6A4 4 0 0 0 28 31 4 4 0 0 0 24 27zM24 29A2 2 0 0 1 26 31 2 2 0 0 1 25 32.7L25 34.9 25 35.2 25 38A1 1 0 0 1 24 39 1 1 0 0 1 23 38L23 35.2 23 34.9 23 32.7A2 2 0 0 1 22 31 2 2 0 0 1 24 29z"/></svg>