<svg xmlns="http://www.w3.org/2000/svg" version="1.1" width="48" height="144" viewBox="0 0 48 144"><path fill="#bdbec0" d="M22.5 6C21.7 6.4 20.9 6.6 20 6.7 20.9 6.2 21.6 5.3 21.9 4.3 21.1 4.8 20.1 5.2 19.2 5.4 18.4 4.5 17.3 4 16 4c-2.3 0-4.3 1.9-4.3 4.3 0 0.3 0 0.7 0.1 1C8.3 9.1 5.1 7.4 3 4.8 2.6 5.4 2.4 6.2 2.4 6.9c0 1.5 0.8 2.8 1.9 3.6-0.7 0-1.4-0.2-1.9-0.5 0 0 0 0 0 0 0 2.1 1.5 3.8 3.4 4.2-0.4 0.1-0.7 0.2-1.1 0.2-0.3 0-0.5 0-0.8-0.1 0.5 1.7 2.1 3 4 3-1.5 1.2-3.3 1.8-5.3 1.8-0.3 0-0.7 0-1-0.1C3.4 20.3 5.7 21 8.1 21 16 21 20.3 14.5 20.3 8.8c0-0.2 0-0.4 0-0.6 0.8-0.6 1.6-1.4 2.1-2.2z"/><path fill="#55acee" d="M46.5 6C45.7 6.4 44.9 6.6 44 6.7 44.9 6.2 45.6 5.3 45.9 4.3 45.1 4.8 44.1 5.2 43.2 5.4 42.4 4.5 41.3 4 40 4c-2.3 0-4.3 1.9-4.3 4.3 0 0.3 0 0.7 0.1 1C32.3 9.1 29.1 7.4 27 4.8c-0.4 0.6-0.6 1.4-0.6 2.2 0 1.5 0.8 2.8 1.9 3.6-0.7 0-1.4-0.2-1.9-0.5 0 0 0 0 0 0 0 2.1 1.5 3.8 3.4 4.2-0.4 0.1-0.7 0.2-1.1 0.2-0.3 0-0.5 0-0.8-0.1 0.5 1.7 2.1 3 4 3-1.5 1.2-3.3 1.8-5.3 1.8-0.3 0-0.7 0-1-0.1 1.9 1.2 4.2 1.9 6.6 1.9 7.9 0 12.2-6.5 12.2-12.2 0-0.2 0-0.4 0-0.6 0.8-0.6 1.6-1.4 2.1-2.2z"/><path fill="#bdbec0" d="m17 26v0 0 4h-2c-0.7 0-1 0.8-1 1.5v2.5 0h3v4h-3v8H10V38H7v-4h3v-4a4 4 0 0 1 4-4z"/><path fill="#3b5999" d="m41 26v0 0 4h-2c-0.7 0-1 0.8-1 1.5v2.5 0h3v4h-3v8h-4v-8h-3v-4h3v-4a4 4 0 0 1 4-4z"/><path fill="#bdbec0" d="m23 59h-2v-2h-2v2h-2v2h2v2h2v-2h2M8 59v2.4h4c-0.2 1-1.2 3-4 3-2.4 0-4.3-2-4.3-4.4 0-2.4 1.9-4.4 4.3-4.4 1.4 0 2.3 0.6 2.8 1.1l1.9-1.8C11.5 53.7 9.9 53 8 53c-3.9 0-7 3.1-7 7 0 3.9 3.1 7 7 7 4 0 6.7-2.8 6.7-6.8 0-0.5 0-0.8-0.1-1.2z"/><path fill="#dd4b39" d="m47 59h-2v-2h-2v2h-2v2h2v2h2v-2h2M32 59v2.4h4c-0.2 1-1.2 3-4 3-2.4 0-4.3-2-4.3-4.4 0-2.4 1.9-4.4 4.3-4.4 1.4 0 2.3 0.6 2.8 1.1l1.9-1.8C35.5 53.7 33.9 53 32 53c-3.9 0-7 3.1-7 7 0 3.9 3.1 7 7 7 4 0 6.7-2.8 6.7-6.8 0-0.5 0-0.8-0.1-1.2z"/><path fill="#bdbec0" d="m16 83h-3v3.9c0 0.7 0.1 1.1 1.1 1.1H16v3c0 0-1 0.1-2.1 0.1-2.6 0-3.9-1.6-3.9-3.4V83h-2V80.2C10.4 80 10.6 78.2 10.8 77H13v3h3m4-6H4c-1.1 0-2 0.9-2 2v16a2 2 0 0 0 2 2h16a2 2 0 0 0 2-2V76c0-1.1-0.9-2-2-2z"/><path fill="#34465d" d="m40 83h-3v3.9c0 0.7 0.1 1.1 1.1 1.1H40v3c0 0-1 0.1-2.1 0.1-2.6 0-3.9-1.6-3.9-3.4V83H32V80.2C34.4 80 34.6 78.2 34.8 77H37v3h3m4-6H28c-1.1 0-2 0.9-2 2v16a2 2 0 0 0 2 2h16a2 2 0 0 0 2-2V76c0-1.1-0.9-2-2-2z"/><path fill="#bdbec0" d="m13.3 113.3c-1 0-2-0.4-2.6-1.1l-1.2 4-0.1 0.3 0 0c-0.2 0.4-0.7 0.7-1.2 0.7-0.7 0-1.4-0.6-1.4-1.4 0-0.1 0-0.1 0-0.2l0 0 0.1-0.2 2.3-6.9c0 0-0.2-0.8-0.2-1.8 0-2.1 1.2-2.8 2.1-2.8 0.9 0 1.8 0.3 1.8 1.6 0 1.7-1.1 2.5-1.1 3.7 0 0.9 0.8 1.7 1.7 1.7 2.9 0 4-2.2 4-4.2 0-2.7-2.4-4.9-5.2-4.9-2.9 0-5.3 2.2-5.3 4.9 0 0.8 0.3 1.7 0.7 2.4 0.1 0.2 0.2 0.4 0.2 0.7a1.3 1.3 0 0 1-1.2 1.3c-0.4 0-0.8-0.2-1.1-0.6C4.6 109 4.3 107.7 4.3 106.4 4.3 102.3 7.7 99 12 99c4.3 0 7.8 3.3 7.8 7.4 0 3.3-2 6.8-6.5 6.8z"/><path fill="#bd081c" d="m37.3 113.3c-1 0-2-0.4-2.6-1.1l-1.2 4-0.1 0.3 0 0c-0.2 0.4-0.7 0.7-1.2 0.7-0.7 0-1.4-0.6-1.4-1.4 0-0.1 0-0.1 0-0.2l0 0 0.1-0.2 2.3-6.9c0 0-0.2-0.8-0.2-1.8 0-2.1 1.2-2.8 2.1-2.8 0.9 0 1.8 0.3 1.8 1.6 0 1.7-1.1 2.5-1.1 3.7 0 0.9 0.8 1.7 1.7 1.7 2.9 0 4-2.2 4-4.2 0-2.7-2.4-4.9-5.2-4.9-2.9 0-5.2 2.2-5.2 4.9 0 0.8 0.3 1.7 0.7 2.4 0.1 0.2 0.2 0.4 0.2 0.7a1.3 1.3 0 0 1-1.2 1.3c-0.4 0-0.8-0.2-1.1-0.6-0.7-1.1-1-2.4-1-3.7 0-4.1 3.5-7.4 7.8-7.4 4.3 0 7.8 3.3 7.8 7.4 0 3.3-2 6.8-6.5 6.8z"/><path fill="#bdbec0" d="m21 141h-4v-6.7c0-1.1-1.2-1.9-2.2-1.9-1.1 0-1.7 0.9-1.7 1.9V141H9v-12h4v2c0.7-1.1 2.4-1.8 3.5-1.8 2.5 0 4.5 2 4.5 4.5V141M7 141H3v-12h4v12M5 123a2 2 0 0 1 2 2 2 2 0 0 1-2 2 2 2 0 0 1-2-2 2 2 0 0 1 2-2z"/><path fill="#0077b5" d="m45 141h-4v-6.7c0-1.1-1.2-1.9-2.2-1.9-1.1 0-1.7 0.9-1.7 1.9V141h-4v-12h4v2c0.7-1.1 2.4-1.8 3.5-1.8 2.5 0 4.5 2 4.5 4.5V141m-14 0h-4v-12h4v12m-2-18a2 2 0 0 1 2 2 2 2 0 0 1-2 2 2 2 0 0 1-2-2 2 2 0 0 1 2-2z"/></svg>